# xmcd
#
# Track frame offsets:
# 183
# 21595
# 44683
# 56283
# 80958
# 104358
# 118858
# 139533
# 165408
# 211833
# 237033
# 258708
# 276933
# 323508
#
# Disc length: 4551 seconds
#
#
# Revision: 2
# Processed by: cddbd v1.5.2PL0 Copyright (c) Steve Scherf et al.
# Submitted via: FreeRIP 2.951 
#
DISCID=c811c50e
DTITLE=Stevie Ray Vaughan And Double Trouble - All You Can Get About Him - Disc 2
DYEAR=1988
DGENRE=Blues
TTITLE0=Shuffle
TTITLE1=You'll Be Mine
TTITLE2=The House Is Rockin'
TTITLE3=Tightrope
TTITLE4=Look Out Little Sister
TTITLE5=Let Me Love You Babe
TTITLE6=Willie The Wimp
TTITLE7=Leave My Girl Alone
TTITLE8=Riviera Paradise
TTITLE9=Wall Of Denial
TTITLE10=Superstition
TTITLE11=Crossfire
TTITLE12=Flood Down In Texas
TTITLE13=Rue Mood
EXTD=
EXTT0=Recorded live in Montreal in 1983.\nUnreleased track.
EXTT1=Recorded live in Los Angeles in 1983.
EXTT2=Recorded live in Austin in 1989.
EXTT3=Recorded live in Austin in 1989.
EXTT4=Recorded live in Austin in 1989.
EXTT5=Recorded live in Austin in 1989.
EXTT6=Recorded live in Austin in 1989.
EXTT7=Recorded live in Austin in 1989.
EXTT8=Recorded live in Austin in 1989.
EXTT9=Recorded live in Austin in 1989.
EXTT10=Recorded live in Austin in 1989.
EXTT11=Recorded live in Austin in 1989.
EXTT12=Recorded live in Montreux in 1982.
EXTT13=Recorded live in Montreal in 1983.
PLAYORDER=
